<?xml version="1.0" encoding="UTF-8"?><svg id="Layer_1" xmlns="http://www.w3.org/2000/svg" viewBox="0 0 957.22 759.85"><defs><style>.cls-1{fill:#f15e61;}.cls-2{fill:#5ac5c2;}.cls-3{fill:#231f20;font-family:SEBANGGothic, 'SEBANG Gothic';font-size:190px;isolation:isolate;}</style></defs><path class="cls-1" d="M21,135.61s18.2,1.03,18.29-21.86c.01-2.54,.72-7.72,1.09-10.9,1.59-13.73,8.16-48.31,44.03-62.44,6.79-2.67,14.05-3.95,21.35-3.95l352.34,.11c4.67,0,9.32,.53,13.85,1.63,11.03,2.65,29.36,9.24,42.39,25.83,8.55,10.88,14.08,23.41,14.08,37.02v188.7c0,3.94-.38,7.86-1.15,11.72-2.93,14.53-13.06,45.18-47,56.29-5.85,1.92-11.99,2.81-18.15,2.81H224.16c-1.54,0-3.02,.59-4.13,1.65l-80.62,76.5c-1.27,1.21-3.38,.31-3.38-1.45v-59.84s.14-13.63-11.01-16.23c-1.55-.36-3.16-.24-4.75-.24-10.59-.03-63.27,3.61-78.07-54.51-1.22-4.8-1.41-8.9-1.82-14.68l-.17-12.84c0-10.41-8.19-18.2-18.59-18.13-.41,0-.83,.01-1.25,.04,0,0-.37-.01-1.02,.02-9.07,.52-16.11,8.14-16.11,17.22v20.02s.51,82.6,93.76,99.05c.96,.17,1.66,.99,1.66,1.96v86.21c0,7.23,4.31,13.76,10.95,16.63,2.3,.99,2.58,1.14,4.87,1.55,0,0,8.72,2.47,19.19-7.68,1.17-1.13,4.08-3.88,5.24-5.02l94.3-92.61c1.12-1.1,2.63-1.71,4.19-1.71h225.97c5.42,0,14.17-1.02,19.45-2.25,14.48-3.39,39.22-10.72,53.96-29.97,.41-.54,.85-1.05,1.29-1.57,3.81-4.45,25.23-30.58,27.06-57.13l.39-206.41s.11-37.33-32.05-68.49c0,0-26.64-29.15-70.36-30.66H101.66c-6.47,0-12.89,1.04-19.03,3.1-14.56,4.89-38.99,16.5-55.83,36.87-1.2,1.46-2.27,3.03-3.52,4.44-3.75,4.25-13.1,16.71-18.02,39.78-.71,3.32-1.12,6.7-1.25,10.09l-.69,17.97c-.05,6.58,.03,11.63,3.19,16.16,2.81,4,6.38,6.63,14.49,7.2Z"/><path class="cls-2" d="M938.07,391.7s-18.2,1.03-18.29-21.86c-.01-2.54-.72-7.72-1.09-10.9-1.59-13.73-8.16-48.31-44.03-62.44-6.79-2.67-14.05-3.95-21.35-3.95l-352.33,.12c-4.67,0-9.32,.53-13.85,1.63-11.03,2.65-29.36,9.24-42.39,25.83-8.55,10.88-14.08,23.41-14.08,37.02v188.69c0,3.94,.38,7.86,1.15,11.72,2.93,14.53,13.06,45.18,47,56.29,5.85,1.92,11.99,2.81,18.15,2.81h237.96c1.54,0,3.02,.59,4.13,1.65l80.62,76.5c1.27,1.21,3.38,.31,3.38-1.45v-59.84s-.14-13.63,11.01-16.23c1.55-.36,3.16-.24,4.75-.24,10.59-.03,63.27,3.61,78.07-54.51,1.22-4.8,1.41-8.9,1.82-14.68l.17-12.84c0-10.41,8.19-18.2,18.59-18.13,.41,0,.83,.01,1.25,.04,0,0,.37-.01,1.02,.02,9.07,.52,16.11,8.14,16.11,17.22v20.02s-.51,82.6-93.76,99.05c-.96,.17-1.66,.99-1.66,1.96v86.21c0,7.23-4.31,13.76-10.95,16.63-2.3,.99-2.58,1.14-4.87,1.55,0,0-8.72,2.47-19.19-7.68-1.17-1.13-4.08-3.88-5.24-5.02l-94.3-92.61c-1.12-1.1-2.63-1.71-4.19-1.71h-225.98c-5.42,0-14.17-1.02-19.45-2.25-14.48-3.39-39.22-10.72-53.96-29.97-.41-.54-.85-1.05-1.29-1.57-3.81-4.45-25.23-30.58-27.06-57.13l-.39-206.41s-.11-37.33,32.05-68.49c0,0,26.64-29.15,70.36-30.66h361.47c6.47,0,12.89,1.04,19.03,3.1,14.56,4.89,38.99,16.5,55.83,36.87,1.2,1.46,2.27,3.03,3.52,4.44,3.75,4.25,13.1,16.71,18.02,39.78,.71,3.32,1.12,6.7,1.25,10.09l.69,17.97c.05,6.58-.03,11.63-3.19,16.16-2.82,4.01-6.4,6.64-14.51,7.2Z"/><circle class="cls-1" cx="19.81" cy="195.67" r="19.81"/><circle class="cls-2" cx="937.41" cy="448.37" r="19.81"/><text class="cls-3" transform="translate(111.66 225.18)"><tspan x="0" y="0">non</tspan></text><text class="cls-3" transform="translate(551.92 507.34)"><tspan x="0" y="0">ing</tspan></text></svg>